<?xml version="1.0" encoding="utf-8"?>
<!-- Generator: Adobe Illustrator 19.0.0, SVG Export Plug-In . SVG Version: 6.00 Build 0)  -->
<svg version="1.1" id="Layer_1" xmlns="http://www.w3.org/2000/svg" xmlns:xlink="http://www.w3.org/1999/xlink" x="0px" y="0px"
	 viewBox="-183 326 244 141" style="enable-background:new -183 326 244 141;" xml:space="preserve">
<style type="text/css">
	.st0{fill:#0078D6;stroke:#FFFFFF;stroke-width:2;stroke-miterlimit:10;}
	.st1{fill:#6A6A6A;stroke:#FFFFFF;stroke-miterlimit:10;}
	.st2{fill:#FDEEF3;}
	.st3{fill:#FFFFFF;}
	.st4{fill:none;}
	.st5{font-family:'Consolas';}
	.st6{font-size:24px;}
</style>
<path class="st0" d="M22.2,400.3h-166.5c-18.5,0-33.5-15-33.5-33.5l0,0c0-18.5,15-33.5,33.5-33.5H22.2c18.5,0,33.5,15,33.5,33.5l0,0
	C55.7,385.3,40.7,400.3,22.2,400.3z"/>
<path id="XMLID_54_" class="st1" d="M-62.6,463.4h-0.2c-1.3,0-2.3-1.2-2.3-2.8v-60.3c1.5-0.1,1.1,0,2.4,0h0.4c1.3,0,0,0,2,0v60.3
	C-60.3,462.3-61.3,463.4-62.6,463.4z"/>
<path class="st2" d="M-134.5,366.8c0,6-5.5,11.5-11.5,11.4c-5.9-0.1-11.1-5.4-11.1-11.3c0-6,5.5-11.5,11.5-11.4
	C-139.8,355.7-134.5,360.9-134.5,366.8z"/>
<path class="st0" d="M-146,358.3c4.7-0.1,8.6,3.6,8.7,8.4c0.1,4.5-3.5,8.3-8,8.5c-4.8,0.2-8.7-3.4-8.9-8.1
	C-154.5,362.5-150.7,358.4-146,358.3z"/>
<circle class="st3" cx="-145.8" cy="366.8" r="5.5"/>
<rect id="XMLID_1_" x="-123.3" y="357.7" class="st4" width="168.3" height="29.3"/>
<text transform="matrix(1 0 0 1 -108.7024 375.3981)" class="st3 st5 st6">PARTNER</text>
</svg>
