<?xml version="1.0" encoding="utf-8"?>
<!-- Generator: Adobe Illustrator 19.0.0, SVG Export Plug-In . SVG Version: 6.00 Build 0)  -->
<svg version="1.1" id="Layer_1" xmlns="http://www.w3.org/2000/svg" xmlns:xlink="http://www.w3.org/1999/xlink" x="0px" y="0px"
	 viewBox="-183 326 244 141" style="enable-background:new -183 326 244 141;" xml:space="preserve">
<style type="text/css">
	.st0{fill:#3EB75D;stroke:#FFFFFF;stroke-width:2;stroke-miterlimit:10;}
	.st1{fill:#6A6A6A;stroke:#FFFFFF;stroke-width:2;stroke-miterlimit:10;}
	.st2{fill:#FDEEF3;}
	.st3{fill:#3EB75D;}
	.st4{fill:#FFFFFF;}
	.st5{fill:none;}
	.st6{font-family:'Consolas';}
	.st7{font-size:24px;}
</style>
<g>
	<path class="st0" d="M23.2,398.7h-166.5c-18.5,0-33.5-15-33.5-33.5l0,0c0-18.5,15-33.5,33.5-33.5H23.2c18.5,0,33.5,15,33.5,33.5
		l0,0C56.8,383.7,41.8,398.7,23.2,398.7z"/>
	<path id="XMLID_54_" class="st1" d="M-61.6,461.8h-0.2c-1.3,0-2.3-1.2-2.3-2.8v-60.3c1.5-0.1,1.1,0,2.4,0h0.4c1.3,0,0,0,2,0V459
		C-59.3,460.6-60.3,461.8-61.6,461.8z"/>
	<path class="st2" d="M-133.5,365.1c0,6-5.5,11.5-11.5,11.4c-5.9-0.1-11.1-5.4-11.1-11.3c0-6,5.5-11.5,11.5-11.4
		C-138.8,354-133.5,359.3-133.5,365.1z"/>
	<path class="st3" d="M-145,356.7c4.7-0.1,8.6,3.6,8.7,8.4c0.1,4.5-3.5,8.3-8,8.5c-4.8,0.2-8.7-3.4-8.9-8.1
		C-153.5,360.9-149.6,356.8-145,356.7z"/>
	<circle class="st4" cx="-144.8" cy="365.2" r="5.5"/>
	<rect id="XMLID_1_" x="-122.3" y="356" class="st5" width="168.3" height="29.3"/>
	<text transform="matrix(1 0 0 1 -122.2025 372.5189)" class="st4 st6 st7">SET PICK UP</text>
</g>
</svg>
