<?xml version="1.0" encoding="utf-8"?>
<!-- Generator: Adobe Illustrator 19.0.0, SVG Export Plug-In . SVG Version: 6.00 Build 0)  -->
<svg version="1.1" id="Layer_1" xmlns="http://www.w3.org/2000/svg" xmlns:xlink="http://www.w3.org/1999/xlink" x="0px" y="0px"
	 viewBox="-77.7 305.8 70.2 131.6" style="enable-background:new -77.7 305.8 70.2 131.6;" xml:space="preserve">
<style type="text/css">
	.st0{fill:#6A6A6A;stroke:#FFFFFF;stroke-miterlimit:10;}
	.st1{stroke:#FFFFFF;stroke-miterlimit:10;}
	.st2{fill:#FFFFFF;}
	.st3{fill:#231F20;}
</style>
<path id="XMLID_54_" class="st0" d="M-42.4,435.6h-0.2c-1.3,0-2.3-1.2-2.3-2.8v-60.3c1.5-0.1,1.1,0,2.4,0h0.4c1.3,0,0,0,2,0v60.3
	C-40.1,434.4-41.1,435.6-42.4,435.6z"/>
<image style="overflow:visible;" width="973" height="460" xlink:href="pick.png"  transform="matrix(0.24 0 0 0.24 -284.2 479.8)">
</image>
<path class="st1" d="M-42.5,374.6L-42.5,374.6c-18.5,0-33.5-15-33.5-33.5v0c0-18.5,15-33.5,33.5-33.5h0c18.5,0,33.5,15,33.5,33.5v0
	C-9,359.6-24,374.6-42.5,374.6z"/>
<path class="st2" d="M-31.2,341.1c0,6-5.5,11.5-11.5,11.4c-5.9-0.1-11.1-5.4-11.1-11.3c0-6,5.5-11.5,11.5-11.4
	C-36.5,330-31.2,335.3-31.2,341.1z"/>
<path class="st3" d="M-42.7,332.7c4.7-0.1,8.6,3.6,8.7,8.4c0.1,4.5-3.5,8.3-8,8.5c-4.8,0.2-8.7-3.4-8.9-8.1
	C-51.2,336.9-47.4,332.8-42.7,332.7z"/>
<circle class="st2" cx="-42.5" cy="341.1" r="5.5"/>
</svg>
