<?xml version="1.0" encoding="utf-8"?>
<!-- Generator: Adobe Illustrator 19.0.0, SVG Export Plug-In . SVG Version: 6.00 Build 0)  -->
<svg version="1.1" id="Layer_1" xmlns="http://www.w3.org/2000/svg" xmlns:xlink="http://www.w3.org/1999/xlink" x="0px" y="0px"
	 viewBox="206 141 1024 512" style="enable-background:new 206 141 1024 512;" xml:space="preserve">
<style type="text/css">
	.st0{fill:#231F20;}
	.st1{fill:#FFFFFF;}
	.st2{fill:#4F5D73;}
</style>
<g>
	<path class="st0" d="M858,397.4c0-69.6-62.7-126-140-126s-140,56.4-140,126c0,67,58.1,121.6,131.4,125.6
		c4.8,25.6,8.6,42.4,8.6,42.4s35.3-21.3,67.5-57.6C828.7,486.3,858,444.9,858,397.4z"/>
	<path class="st1" d="M837,375c0,104.7-119,176.4-119,176.4s-65.7-293.9,0-293.9S837,310,837,375z"/>
	<path class="st1" d="M578.1,383.4c0,69.6,62.6,126,139.9,126c77.3,0,140-56.4,140-126c0,0,0,0,0,0c0-69.6-62.7-126-140-126
		S578.1,313.8,578.1,383.4z"/>
	<path class="st2" d="M704.1,383.4c0,7.7,6.3,14,14,14c7.7,0,14-6.3,14-14c0,0,0,0,0,0c0-7.7-6.3-14-14-14
		C710.3,369.4,704.1,375.6,704.1,383.4C704.1,383.3,704.1,383.4,704.1,383.4z"/>
	<path class="st2" d="M760,383.4c0,7.7,6.3,14,14,14s14-6.3,14-14c0-7.7-6.3-14-14-14S760,375.6,760,383.4z"/>
	<path class="st2" d="M648.1,383.4c0,7.7,6.3,14,14,14c7.7,0,14-6.3,14-14c0,0,0,0,0,0c0-7.7-6.3-14-14-14
		C654.3,369.4,648.1,375.6,648.1,383.4C648.1,383.3,648.1,383.4,648.1,383.4z"/>
</g>
</svg>
