<?xml version="1.0" encoding="utf-8"?>
<!-- Generator: Adobe Illustrator 19.0.0, SVG Export Plug-In . SVG Version: 6.00 Build 0)  -->
<svg version="1.1" id="Capa_1" xmlns="http://www.w3.org/2000/svg" xmlns:xlink="http://www.w3.org/1999/xlink" x="0px" y="0px"
	 viewBox="-49 141 512 512" style="enable-background:new -49 141 512 512;" xml:space="preserve">
<style type="text/css">
	.st0{fill:#505050;}
</style>
<g>
	<g>
		<g>
			<g>
				<polygon class="st0" points="267.6,366.2 291.5,379.9 339.4,352.5 267.6,309.7 				"/>
				<path class="st0" d="M413,278.9l17.1-30.8c13.7-24-25.7-51.3-44.5-61.6c-18.8-10.3-61.6-32.5-75.3-6.8l-24,41.1
					c-24-5.1-51.3-8.6-78.7-8.6c-142,0-256.7,77-256.7,171.1c0,94.1,114.6,171.1,256.7,171.1c0,0,0,0,1.7,0
					c1.7,20.5-22.2,54.8-56.5,71.9c135.2,0,196.8-101,196.8-101c68.4-30.8,112.9-82.1,112.9-142C466,343.9,445.5,308,413,278.9z
					 M69.1,431.2c-13.7,0-24-10.3-24-24s10.3-24,24-24s24,10.3,24,24S81.1,431.2,69.1,431.2z M132.4,431.2c-13.7,0-24-10.3-24-24
					s10.3-24,24-24s24,10.3,24,24S146.1,431.2,132.4,431.2z M195.7,431.2c-13.7,0-24-10.3-24-24s10.3-24,24-24s24,10.3,24,24
					C219.6,420.9,209.4,431.2,195.7,431.2z M348,357.6L298.4,385l-41.1,22.2V361v-56.5l68.5-118.1c3.4-6.8,27.4,0,53,13.7
					c25.7,13.7,42.8,30.8,37.6,37.6L348,357.6z"/>
			</g>
		</g>
	</g>
</g>
</svg>
