<?xml version="1.0"?>
<svg xmlns="http://www.w3.org/2000/svg" id="Layer_1" enable-background="new 0 0 512 512" height="512px" viewBox="0 0 512 512" width="512px" class=""><g><path d="m0 166.86 29.824 3.281c5.918-53.628 31.157-103.477 71.074-140.376l-20.361-22.031c-45.22 41.792-73.828 98.306-80.537 159.126z" data-original="#000000" class="active-path" data-old_color="#505051" fill="#505050"/><path d="m512 166.86c-6.709-60.82-35.317-117.334-80.537-159.126l-20.361 22.031c39.917 36.899 65.156 86.748 71.074 140.376z" data-original="#000000" class="active-path" data-old_color="#505051" fill="#505050"/><path d="m59.634 173.481 29.824 3.281c4.805-43.579 26.411-82.808 60.85-110.464l-18.78-23.378c-40.678 32.666-66.211 79.028-71.894 130.561z" data-original="#000000" class="active-path" data-old_color="#505051" fill="#505050"/><path d="m380.472 42.92-18.779 23.379c34.438 27.656 56.045 66.885 60.85 110.464l29.824-3.281c-5.684-51.534-31.217-97.896-71.895-130.562z" data-original="#000000" class="active-path" data-old_color="#505051" fill="#505050"/><path d="m120 195v107c0 16.919-6.841 32.563-19.277 44.063-5.42 5.012-10.005 10.439-14.396 15.938h338.635c-4.409-5.532-9.234-10.897-14.685-15.938-12.246-11.324-19.277-27.378-19.277-44.063v-107c0-60.69-40.512-111.548-95.722-128.489 3.532-6.421 5.722-13.68 5.722-21.511 0-24.814-20.186-45-45-45s-45 20.186-45 45c0 7.831 2.19 15.09 5.722 21.511-55.21 16.941-96.722 67.799-96.722 128.489zm121-150c0-8.276 6.724-15 15-15s15 6.724 15 15-6.724 15-15 15-15-6.724-15-15z" data-original="#000000" class="active-path" data-old_color="#505051" fill="#505050"/><path d="m451 422h-.513c-1.036-10.248-4.105-20.237-8.126-30h-373.761c-5.35 12.993-8.6 26.494-8.6 40.225v19.775h391z" data-original="#000000" class="active-path" data-old_color="#505051" fill="#505050"/><path d="m256 512c19.53 0 36.024-12.578 42.237-30h-84.474c6.213 17.422 22.707 30 42.237 30z" data-original="#000000" class="active-path" data-old_color="#505051" fill="#505050"/></g> </svg>
