<?xml version="1.0" encoding="utf-8"?>
<!-- Generator: Adobe Illustrator 19.0.0, SVG Export Plug-In . SVG Version: 6.00 Build 0)  -->
<svg version="1.1" id="Layer_1" xmlns="http://www.w3.org/2000/svg" xmlns:xlink="http://www.w3.org/1999/xlink" x="0px" y="0px"
	 viewBox="0 0 480 480" style="enable-background:new 0 0 480 480;" xml:space="preserve">
<style type="text/css">
	.st0{fill:#2F76BC;}
	.st1{fill:#FFFFFF;}
</style>
<circle id="XMLID_1_" class="st0" cx="240" cy="240" r="240"/>
<circle id="XMLID_2_" class="st1" cx="240" cy="240" r="181.8"/>
<path id="XMLID_3_" class="st0" d="M240,362.6L240,362.6c-18.8,0-34-15.2-34-34V151.4c0-18.8,15.2-34,34-34h0c18.8,0,34,15.2,34,34
	v177.3C274,347.4,258.8,362.6,240,362.6z"/>
<path id="XMLID_4_" class="st0" d="M362.6,239.8L362.6,239.8c0,18.8-15.2,34.1-34,34.1l-177.3,0.2c-18.8,0-34.1-15.2-34.1-34v0
	c0-18.8,15.2-34.1,34-34.1l177.3-0.2C347.4,205.8,362.6,221,362.6,239.8z"/>
</svg>
