<?xml version="1.0" encoding="utf-8"?>
<!-- Generator: Adobe Illustrator 19.0.0, SVG Export Plug-In . SVG Version: 6.00 Build 0)  -->
<svg version="1.1" id="Layer_1" xmlns="http://www.w3.org/2000/svg" xmlns:xlink="http://www.w3.org/1999/xlink" x="0px" y="0px"
	 viewBox="-281 373 48 48" style="enable-background:new -281 373 48 48;" xml:space="preserve">
<style type="text/css">
	.st0{fill:none;}
	.st1{fill:#0078D6;}
</style>
<path class="st0" d="M-281,373h48v48h-48V373z"/>
<path class="st1" d="M-257,388.3c-4.4,0-8,3.6-8,8s3.6,8,8,8c4.4,0,8-3.6,8-8S-252.6,388.3-257,388.3z M-239.1,394.3
	c-0.9-8.3-7.5-15-15.9-15.9v-4.1h-4v4.1c-8.3,0.9-15,7.5-15.9,15.9h-4.1v4h4.1c0.9,8.3,7.5,15,15.9,15.9v4.1h4v-4.1
	c8.3-0.9,15-7.5,15.9-15.9h4.1v-4H-239.1z M-257,410.3c-7.7,0-14-6.3-14-14s6.3-14,14-14c7.7,0,14,6.3,14,14S-249.3,410.3-257,410.3
	z"/>
</svg>
