<?xml version="1.0"?>
<svg xmlns="http://www.w3.org/2000/svg" xmlns:xlink="http://www.w3.org/1999/xlink" version="1.1" id="Capa_1" x="0px" y="0px" viewBox="0 0 60 60" style="enable-background:new 0 0 60 60;" xml:space="preserve" width="512px" height="512px" class=""><g><g>
	<path d="M8,22c-4.411,0-8,3.589-8,8s3.589,8,8,8s8-3.589,8-8S12.411,22,8,22z" data-original="#000000" class="active-path" data-old_color="#000000" fill="#008EFF"/>
	<path d="M52,22c-4.411,0-8,3.589-8,8s3.589,8,8,8s8-3.589,8-8S56.411,22,52,22z" data-original="#000000" class="active-path" data-old_color="#000000" fill="#008EFF"/>
	<path d="M30,22c-4.411,0-8,3.589-8,8s3.589,8,8,8s8-3.589,8-8S34.411,22,30,22z" data-original="#000000" class="active-path" data-old_color="#000000" fill="#008EFF"/>
</g></g> </svg>
