<?xml version="1.0" encoding="utf-8"?>
<!-- Generator: Adobe Illustrator 19.0.0, SVG Export Plug-In . SVG Version: 6.00 Build 0)  -->
<svg version="1.1" id="Layer_1" xmlns="http://www.w3.org/2000/svg" xmlns:xlink="http://www.w3.org/1999/xlink" x="0px" y="0px"
	 viewBox="0 0 411.7 128" style="enable-background:new 0 0 411.7 128;" xml:space="preserve">
<style type="text/css">
	.st0{fill:#8195C6;}
	.st1{fill:#5E79B8;}
	.st2{fill:#AAB8D9;}
	.st3{fill:#3D5FAA;}
	.st4{fill:#385BA9;}
	.st5{fill:#3F65B8;}
	.st6{fill:#395BA8;}
	.st7{fill:#3A5BA7;}
	.st8{fill:#4867AD;}
	.st9{fill:#4464AC;}
	.st10{fill:#375EB8;}
	.st11{fill:#4162AC;}
	.st12{fill:#607AB6;}
	.st13{fill:#4464AE;}
	.st14{fill:#5F7BB8;}
	.st15{fill:#4565AE;}
	.st16{fill:#3057AF;}
	.st17{fill:#5572B4;}
	.st18{fill:#3759A8;}
	.st19{fill:#3D60B1;}
	.st20{fill:#3159B2;}
	.st21{fill:#989898;}
	.st22{fill:#4A69AE;}
	.st23{fill:#3F62B3;}
	.st24{fill:#607BB8;}
	.st25{fill:#3A5BA6;}
	.st26{fill:#4766AE;}
	.st27{fill:#3F60A9;}
	.st28{fill:#4A68AF;}
	.st29{fill:#2D51A2;}
	.st30{fill:#3B5CA8;}
	.st31{fill:#3057B0;}
	.st32{fill:#3157AF;}
	.st33{fill:#4061AD;}
	.st34{fill:#6C85BE;}
	.st35{fill:#2F519E;}
	.st36{fill:#5371B4;}
</style>
<g>
	<path class="st0" d="M55.6,98.4C35,93.3,23.1,74.6,28.4,55.8C34.1,35.5,55.3,24,75.2,30.4c3.1,1,7.3,2.8,9.1,5
		c0.6,0.7,0.6,0.4,0.5,1.3C81.4,50,83.4,54,96.6,58.7c4.5,1.6,8.2,3.9,9.4,8.6c3.2,12.3,10.2,20.4,23.1,22.7c0.8,0.2,2.9,0.3,3.3,1
		c-7.7,5.1-17,6-24.2,0.4c-7.6-6-14.2-5.6-21.4,0.4C82.5,95.4,73.3,101.7,55.6,98.4z"/>
	<path class="st1" d="M131,91.3c-13-0.5-22.2-6.4-25.4-19.4c-1.8-7.1-5.4-10.7-12.8-12.5c-12.2-3-15.5-13.4-8.5-23.9
		c4.8-2,7.7,1.4,9.4,4.5c5.6,10.1,12.8,13.7,24.8,11.6c13-2.2,24.2,8.5,25,21.1c0.5,8.4-3.2,14.5-11.1,18.3
		C132,91.2,131.5,91.3,131,91.3z"/>
	<path class="st2" d="M132.4,91c9.6-9.9,11.5-17.2,6.6-26c-5.8-10.5-13.2-13.5-27.2-10.3C105.1,56.3,99.5,55,96,49
		c-4-6.9-6.6-9.5-11.7-13.6c-0.1-0.5,18-14,27.1,4.8c1.9,3.9,6.1,2.2,9.7,1.5c10.5-2,20.8-1.9,28.8,6.8c6.9,7.6,9.7,16.2,5.6,26.1
		C151.3,84.8,143.8,90.7,132.4,91z"/>
	<path class="st3" d="M209.4,48.8c5.7,5.1,5.6,12.1,1.4,16.6c-4.9,5.3-3.9,8.6-0.2,13.1c1.2,1.4,3.9,3.3,1.6,5.1
		c-2.1,1.7-5,1.4-6.8-1.6c-1.6-2.8-3.5-5.4-5.2-8.2c-3.4-2.5-6.8-2.9-9.5,0.9c-1,1.5,0,4.6-3.4,3.8c-3.1-0.7-4.1-2.9-4-5.9
		c0.4-9.4-0.7-18.9,0.6-28.3l0,0c5.6-0.4,11.3-2.5,16.5,1.2c-0.8,2.2-2.9,3.3-4.5,4.8c-0.9,0.8-1.9,1.5-2.8,2.3
		c-2.6,4.1-1,8.5-0.9,12.7c0,0.8-0.3,1.5-0.7,2.1c-0.9,0.7,0.4-0.1-0.6,0.6c0.3-0.4,0.7-0.6,1-1c3.8-3.6,10.6-4,11.4-10.7
		C204.8,53.3,206.7,50.8,209.4,48.8z"/>
	<path class="st4" d="M288.3,52.6c6.1,6.6,5.6,14,1.5,20.9c-5.1,8.5-13.2,11.8-23.1,10.5c-1-1.1-1.3-2.4-1.1-3.8
		c1.5-4.2,5.8-3.3,8.8-4.9c6.2-3.3,7.6-9.3,8.8-15.4c0.4-1.1,1-2.1,1.6-3.1C285.8,55.4,286.5,53.5,288.3,52.6z"/>
	<path class="st5" d="M234.4,82.1c-3.2,2.4-5.3,2.5-5.3-2.4c0.1-10.7,0-21.3,0-32c0-2.7,0.7-4.6,3.9-4.7c3,0,4.4,1.6,4.3,4.4
		c-0.6,11.4,1.4,22.9-1.1,34.3c-0.8-7.2-2.7-14.3-2.2-21.6c0.1-1.2,0-2.1,0-0.9c0,0.1-0.3,0.2-0.4,0.3c-0.9,4.6-0.2,8.9,1.7,13.1
		C234.9,75.8,236.2,79.1,234.4,82.1z"/>
	<path class="st6" d="M314.8,76.8c6,1.8,12.4-0.8,18.3,1.7c-4.1,4.1-9.6,1.6-14.2,3.2c-3.8,0.8-6.8-0.2-8.7-3.7
		c-2.2-11.3-3.4-22.7-0.2-34c3.2-0.3,6.5-0.3,9.7,0c3,5.5-3.4,4-4.6,6.4l0.2-0.3c-1.2,4.1-3.6,8.3,1.4,11.6
		c5.2,0.5,10.6-1.1,15.7,0.9c1,3.5,0.1,5.6-4,5.4c-4.3-0.1-8.6,0-13-0.1C313.1,70.7,313.8,73.7,314.8,76.8z"/>
	<path class="st7" d="M254.4,82.1c-0.1-10.9-0.1-21.9-0.4-32.8c-0.1-4.5,1.3-6.8,6-6.2c6.5,0.9,13.7-2.3,19.4,3.1
		c-0.8,1.6-2.2,2.5-3.6,3.5c-1.1,0.8-2.2,1.4-3.5,1.8c-3.1,0.7-6.2,0.9-9-0.9c-1.7-3.6,0.7-4.3,2.2-4.9c-2.8-0.2-5.9,0.1-4.3,5.7
		c0.7,2.5,0.6,5.7-2.2,7.1c-2,1-2.2-1-2.1-2.6c-0.8,1.6,0.1,2.6,1.3,3.4c2.8,1.9,3,4.7,1.5,7c-2.3,3.6,0.4,6.2,1,9.2
		c0,0.8-0.1,1.6-0.4,2.4c-1,1.7-2.5,3-4,4.2C255.7,82.8,255,82.7,254.4,82.1z"/>
	<path class="st3" d="M374,60.6c5.1,6.8,6.1,15.5,10.5,22.7c-7.4,3.4-8.4-2.6-10.5-6.8c-0.6-0.3-0.9-0.9-1-1.5
		c-0.4-1.3-1.7-2.1-2.2-3.3c-0.7-1.3-1.3-2.6-2.1-3.9c-1.2-2.1-2-4.2-0.9-6.6C369.6,59.1,371.8,60,374,60.6z"/>
	<path class="st8" d="M184.1,44.3c0.1,8.6,0.2,17.2,0.3,25.8c0,2.5-0.8,5.2,3,6.2c4.2,1.2,1.5-2.6,2.9-3.5c3.6-2.1,7-3,10,1
		c-1.7-0.7-3.3-1.2-5.1-0.5c-0.6,0.8-1.2,0.7-1.8,0c-3.9,1.2-2,4.4-2.2,6.8c-0.3,2.9-1.4,4.3-4.5,4.1c-2.5-0.2-4-1.1-3.8-3.7
		C183.5,68.3,180.9,56.2,184.1,44.3z"/>
	<path class="st9" d="M355.9,64.2c1.5-4.8,2.7-9.8,4.7-14.4c2.6-6,5.7-4.6,8.5,0.1c-1.7,2.6-2,5.7-2.8,8.6c-1.3,3-2.3,6.1-5.2,8
		c-1.8,0.6-3.2-0.1-4.6-1.2C356.4,64.9,356.2,64.5,355.9,64.2z"/>
	<path class="st10" d="M311.3,76.7c1.4,3.2,4.1,3.8,7.2,3.6c0.2,0.3,0.4,0.6,0.6,0.9c0,0.8-0.3,1.3-1,1.6c-1.6,0.4-3.5-0.4-4.9,1.1
		c-3.7,0.9-6.7,0.4-6.4-4.4c0.5-11.7-1.2-23.5,1-35.1c0.3,0.4,0.5,0.8,0.8,1.3c1.6,6.9-0.3,13.9,0.6,20.9
		C309.6,70.1,309.1,73.7,311.3,76.7z"/>
	<path class="st11" d="M356.1,76.8c-0.6,1.3-1.3,2.7-1.8,4.1c-1.4,3.6-4.4,4.5-7.2,3c-3.1-1.7,0.2-4.1,0.8-6
		c0.7-2.2,2.1-4.2,3.2-6.4c1.3-1.3,2.8-1.6,4.5-1c0.7,0.4,1.3,1,1.6,1.8c0.2,0.8,0.3,1.6,0.2,2.5C357.1,75.5,356.7,76.2,356.1,76.8z
		"/>
	<path class="st12" d="M320.2,44.7c-3.5,0-7.1,0-10.6,0c-0.4,0.5-1,0.7-1.6,0.6c-0.2-0.3-0.3-0.6-0.2-0.9c7.7-3.5,15.9-1.4,23.8-1.2
		c4.2,0.1,4.2,3.6,1.2,6.5c-1.6-1.3-3.7-0.3-5.5-1.1c-1.6-1.1-3.4-1.9-5.2-2.5C321.4,45.7,320.8,45.3,320.2,44.7z"/>
	<path class="st13" d="M209.4,48.8c0.9,3.9-3.9,5.2-4,8.7c-3.8-2.1-6.9-5.2-10.4-7.8c0.1-2.3,1.4-3.3,3.6-3.4c3,0.8,6.4-0.7,9,1.8
		C208.3,48.3,208.8,48.6,209.4,48.8z"/>
	<path class="st14" d="M275,48.2c1.1-1.4,2.7-1.8,4.5-1.9c4.8-0.5,5.1,5.3,8.8,6.4c-0.1,1.7-0.2,3.5-2,4.4c-2.8,1.3-3.6-1.6-5.4-2.4
		c-0.6-0.5-1.1-1-1.6-1.5C277.8,51.5,275.9,50.3,275,48.2z"/>
	<path class="st15" d="M207.7,48.1c-3.1-0.4-6.5,1.2-9-1.8c-4.4-3.8-9.8-0.7-14.6-2C192.4,43,200.9,39.8,207.7,48.1z"/>
	<path class="st16" d="M232.6,57c0.7-1.3,1.4-2.5,3.6-6.2c0,12,0,21.5,0,30.9c-0.6,0.1-1.2,0.2-1.8,0.4c0-3.6,0-7.2,0-10.7
		C231.2,66.9,233.3,61.8,232.6,57z"/>
	<path class="st17" d="M365,58.6c0.6-3.3-1.9-8.1,4.2-8.8c0.9,1.9,1.9,3.7,2.8,5.6c-0.9,2.4-1.6,5-5,4.6
		C366.2,59.8,365.5,59.3,365,58.6z"/>
	<path class="st18" d="M318.5,80.3c4.5-3.5,9.8-0.9,14.6-1.8c1.9,1.9,2.3,3.7-0.3,5.3c-1.8-1.4-4-0.3-5.9-1.2
		C324.2,81.6,320.9,82.8,318.5,80.3L318.5,80.3z"/>
	<path class="st19" d="M327.5,48.1c1.8,0.3,3.9-0.3,5.3,1.6c-5.9,0.2-11.8,0.3-17.7,0.5c1.7-1.8,3.4-3.6,5.1-5.5
		c0.6-0.1,1.2-0.1,1.8-0.1C323.5,46.3,326.1,46.3,327.5,48.1z"/>
	<path class="st20" d="M327.5,82.1c1.9,0.1,4-0.3,5.3,1.6c-6.5,1-13.1,0.7-19.6,0.2c1.3-2.1,3.4-1.7,5.4-1.8
		C321.5,80.8,324.5,80.8,327.5,82.1z"/>
	<path class="st21" d="M332.3,62.5c-5.7-0.1-11.3-0.1-17-0.2c-0.7-0.3-0.9-0.7-0.7-1.1c0.2-0.4,0.4-0.6,0.6-0.6
		c4.6-0.2,9.2-0.1,13.7-0.7C331.4,59.6,331.8,60.8,332.3,62.5z"/>
	<path class="st22" d="M356.1,76.8c0-0.6,0-1.3,0-1.9c6-3.7,11.9-3.1,17.9,0c0,0.6,0,1.1,0,1.7C368.1,76.7,362.1,76.7,356.1,76.8z"
		/>
	<path class="st23" d="M254.4,82.1c0.6,0,1.1,0,1.7-0.1c1.5-1.7,3.7-1.7,5.7-2.2c1.6-0.2,3.3-0.6,4.8,0.4c0,1.2,0,2.4,0,3.7
		C262.5,83.8,257.9,86.6,254.4,82.1z"/>
	<path class="st24" d="M356.1,71.3c-1.7,0.1-3.3,0.1-5,0.2c1-2.8,1.3-6.2,4.9-7.3l0.6,0.1C360.1,66.9,356.1,68.9,356.1,71.3z"/>
	<path class="st25" d="M315.2,60.6c-0.1,0.6,0,1.2,0.1,1.7c-3.5-4.1-3.3-8.2-0.1-12.4C315.2,53.5,315.2,57,315.2,60.6z"/>
	<path class="st26" d="M366.9,58.8c2.8,0.4,3.5-2.3,5.2-3.5c0.7,1.8,1.3,3.5,2,5.3c-1.8,1.2-3.7,1-5.5,0
		C367,60.8,366.3,60.4,366.9,58.8z"/>
	<path class="st25" d="M314.8,76.8c-2.2-3.1-2.8-6.1,0.5-8.9C315.1,70.8,315,73.8,314.8,76.8z"/>
	<path class="st15" d="M191.6,49.9c-1.4,5.3-0.6,10.6-0.6,16C189.1,60.5,188.2,55.1,191.6,49.9z"/>
	<path class="st27" d="M191.7,67.6c-1.3,1.6-2.6,3.2-4.9,2.3c-0.3-0.1-0.5-1.1-0.4-1.5C187.8,65.5,190.1,68.6,191.7,67.6
		C191.8,67.6,191.7,67.6,191.7,67.6z"/>
	<path class="st28" d="M261.5,76.3c4.6,1.8,9.4,0.6,14,0.6c-2.2,3.2-6.8,0.2-8.9,3.4c-1.2,0.6-2.5,1.1-3.7,1.7
		c-0.8-1.5-4.5-0.1-3.4-3.5l0-0.2C260.3,77.8,260.4,76.6,261.5,76.3z"/>
	<path class="st29" d="M284.1,59c-1.1-1.8-2.2-3.7-3.3-5.5c2.8-0.3,3.7,2.3,5.6,3.5C285.6,57.7,284.8,58.4,284.1,59z"/>
	<path class="st30" d="M232.6,57c3.6,4.4,1,9.6,1.8,14.3C227.8,67.3,230.7,62.1,232.6,57z"/>
	<path class="st31" d="M308,45.4c0.4-0.5,1-0.7,1.6-0.6c2.3,10.6,0,21.4,1.8,31.9c-4.4-0.6-3.4-4-3.5-6.8
		C307.8,61.7,307.9,53.6,308,45.4z"/>
	<path class="st25" d="M325.3,65.7c-2.8,0-5.6,0-10.7,0C319.7,63.8,322.6,64,325.3,65.7z"/>
	<path class="st32" d="M261.5,76.3c-0.7,0.7-1.3,1.4-2,2c-6-8.3,1.9-18.1-4.9-26.4c0.8-0.1,1.7-0.2,2.5-0.3c0.4,1.8,0.8,3.6,1.5,7
		c1.2-5.7,1.4-9.6-1.4-13.7c5,0,9.6,0,14.2,0c-2.7,1.5-6.9,0.9-8.4,4.8C260,58.5,262.5,67.5,261.5,76.3z"/>
	<path class="st33" d="M280.8,53.7c-2.2-1.6-5.6-1.6-6.7-4.8c0.2-0.4,0.5-0.7,0.9-0.8C277.7,49.2,281,49.7,280.8,53.7z"/>
	<path class="st34" d="M259.5,78.6c1.1,1.2,2.3,2.3,3.4,3.5c-2.3,0-4.5,0-6.8,0C256,79.6,257.1,78.5,259.5,78.6z"/>
	<path class="st35" d="M374,74.9c-6,0-11.9,0-17.9,0c0-0.6,0-1.2,0-1.8c1.6-0.7,0-4.6,3.5-3.5l0,0.1c3.9,2.5,8.6-0.5,12.6,1.6
		C371.9,73,375.8,72.5,374,74.9z"/>
	<path class="st22" d="M372.2,71.3c-4.3,0.1-8.8,2.4-12.6-1.6c3.8-0.1,8.1,2.3,11.3-1.8C371.4,69,371.8,70.2,372.2,71.3z"/>
	<path class="st22" d="M359.6,69.6c-1.2,1.2-2.3,2.3-3.5,3.5c0-0.6,0-1.2,0-1.8c-2-2.5,2-4.5,0.5-7c1.7,0,2.8,0.8,3.5,2.3
		C359.9,67.6,359.8,68.6,359.6,69.6z"/>
	<path class="st25" d="M327.5,82.1c-3,0-6,0-8.9,0c0-0.6,0-1.2,0-1.7C321.6,80.7,325,79.1,327.5,82.1z"/>
	<path class="st36" d="M327.5,48.1c-2.6,0.1-5.1,0-5.5-3.5C324.7,44.5,327.3,44.4,327.5,48.1z"/>
</g>
</svg>
